<svg height="16" viewBox="0 0 16 16" width="16" xmlns="http://www.w3.org/2000/svg"><g fill="none" fill-rule="evenodd" transform="translate(1 1)"><path d="m7.20588235.09857235 5.97058825 3.17058824c.2882353.12352941.4529412.4117647.4529412.74118059v6.21764702c0 .2882353-.1647059.5764706-.4529412.7411765l-5.97058825 3.1294118c-.24705882.1235294-.53529411.1235294-.78235294 0l-5.97058823-3.1705883c-.2882353-.1235294-.45294118-.4117647-.45294118-.7411764v-6.21764709c0-.28823942.16470588-.57647471.45294118-.74118059l5.97058823-3.17058824c.24705883-.08235376.57647059-.08235376.78235294.04117647z" stroke="#fff"/><path d="m.28821471 3.68092529 6.50590294 10.37647471 6.67058825-10.37647471-9.80002061 5.18823942" stroke="#fff" stroke-linecap="round" stroke-linejoin="round"/><path d="m6.83533529 4.83387059c.68225295 0 1.23529412-.55308235 1.23529412-1.23530235 0-.68223236-.55304117-1.23529412-1.23529412-1.23529412-.68225294 0-1.23529411.55306176-1.23529411 1.23529412 0 .68222.55304117 1.23530235 1.23529411 1.23530235z" fill="#fff" fill-rule="nonzero"/></g></svg>