<?xml version="1.0" encoding="UTF-8"?>
<svg width="16px" height="25px" viewBox="0 0 16 25" version="1.1" xmlns="http://www.w3.org/2000/svg" xmlns:xlink="http://www.w3.org/1999/xlink">
    <!-- Generator: Sketch 52.6 (67491) - http://www.bohemiancoding.com/sketch -->
    <title>ic_connected</title>
    <desc>Created with Sketch.</desc>
    <g id="Page-1" stroke="none" stroke-width="1" fill="none" fill-rule="evenodd">
        <g id="Artboard" transform="translate(-63.000000, -591.000000)" fill="#06F395">
            <path d="M64.3265867,603.968055 L69.7877573,605.798003 C70.2726249,605.960474 70.5567997,606.462569 70.4464944,606.961895 L68.8718727,614.089826 C68.7527405,614.629109 69.0933398,615.16286 69.6326226,615.281992 C70.0275959,615.369245 70.436235,615.20996 70.6679653,614.878421 L78.2055724,604.094289 C78.5219689,603.641617 78.411496,603.018164 77.9588243,602.701768 C77.8708628,602.640287 77.7735782,602.593366 77.6707037,602.562805 L72.7377545,601.097397 C72.229112,600.946297 71.9270407,600.424234 72.0495302,599.907954 L73.7918249,592.564371 C73.9193176,592.027003 73.5870482,591.488028 73.0496804,591.360535 C72.6658112,591.26946 72.2642734,591.412595 72.0245706,591.725952 L63.8500436,602.412298 C63.5144904,602.850958 63.5980749,603.478581 64.0367348,603.814134 C64.1242163,603.881053 64.2221522,603.93306 64.3265867,603.968055 Z" id="ic_connected"></path>
        </g>
    </g>
</svg>