<?xml version="1.0" encoding="UTF-8"?>
<svg width="16px" height="25px" viewBox="0 0 16 25" version="1.1" xmlns="http://www.w3.org/2000/svg" xmlns:xlink="http://www.w3.org/1999/xlink">
    <!-- Generator: Sketch 52.6 (67491) - http://www.bohemiancoding.com/sketch -->
    <title>ic_connecting</title>
    <desc>Created with Sketch.</desc>
    <g id="Page-1" stroke="none" stroke-width="1" fill="none" fill-rule="evenodd">
        <g id="Artboard" transform="translate(-18.000000, -591.000000)" fill="#FFFFFF">
            <path d="M19.3265867,603.968055 L24.7877573,605.798003 C25.2726249,605.960474 25.5567997,606.462569 25.4464944,606.961895 L23.8718727,614.089826 C23.7527405,614.629109 24.0933398,615.16286 24.6326226,615.281992 C25.0275959,615.369245 25.436235,615.20996 25.6679653,614.878421 L33.2055724,604.094289 C33.5219689,603.641617 33.411496,603.018164 32.9588243,602.701768 C32.8708628,602.640287 32.7735782,602.593366 32.6707037,602.562805 L27.7377545,601.097397 C27.229112,600.946297 26.9270407,600.424234 27.0495302,599.907954 L28.7918249,592.564371 C28.9193176,592.027003 28.5870482,591.488028 28.0496804,591.360535 C27.6658112,591.26946 27.2642734,591.412595 27.0245706,591.725952 L18.8500436,602.412298 C18.5144904,602.850958 18.5980749,603.478581 19.0367348,603.814134 C19.1242163,603.881053 19.2221522,603.93306 19.3265867,603.968055 Z" id="ic_connecting"></path>
        </g>
    </g>
</svg>