<?xml version="1.0" encoding="UTF-8"?>
<svg width="21px" height="25px" viewBox="0 0 21 25" version="1.1" xmlns="http://www.w3.org/2000/svg" xmlns:xlink="http://www.w3.org/1999/xlink">
    <!-- Generator: Sketch 52.6 (67491) - http://www.bohemiancoding.com/sketch -->
    <title>ic_disconnected</title>
    <desc>Created with Sketch.</desc>
    <g id="Page-1" stroke="none" stroke-width="1" fill="none" fill-rule="evenodd">
        <g id="Artboard" transform="translate(-118.000000, -591.000000)">
            <g id="ic_disconnected" transform="translate(118.000000, 588.000000)">
                <g id="Group-5" fill="#F70058">
                    <path d="M1.32658671,15.9680547 L6.78775733,17.7980028 C7.27262494,17.9604739 7.55679972,18.4625694 7.44649435,18.9618951 L5.8718727,26.0898261 C5.75274046,26.6291089 6.0933398,27.1628598 6.63262261,27.281992 C7.0275959,27.369245 7.43623499,27.2099596 7.66796529,26.8784207 L15.2055724,16.094289 C15.5219689,15.6416173 15.411496,15.0181643 14.9588243,14.7017678 C14.8708628,14.6402868 14.7735782,14.5933659 14.6707037,14.5628054 L9.73775453,13.0973972 C9.22911202,12.9462971 8.92704071,12.424234 9.04953016,11.9079542 L10.7918249,4.56437106 C10.9193176,4.02700334 10.5870482,3.48802751 10.0496804,3.36053485 C9.66581115,3.26946031 9.26427339,3.41259515 9.02457056,3.72595239 L0.850043602,14.4122976 C0.514490419,14.8509575 0.598074926,15.4785812 1.03673482,15.8141344 C1.12421631,15.8810534 1.2221522,15.9330604 1.32658671,15.9680547 Z" id="Path-2"></path>
                </g>
                <text id="!" transform="translate(19.500000, 15.500000) scale(-1, 1) translate(-19.500000, -15.500000) " font-size="11" font-weight="bold" fill="#FFFFFF">
                    <tspan x="18" y="19">!</tspan>
                </text>
            </g>
        </g>
    </g>
</svg>
