<?xml version="1.0" encoding="UTF-8"?>
<svg width="17px" height="17px" viewBox="0 0 17 17" version="1.1" xmlns="http://www.w3.org/2000/svg" xmlns:xlink="http://www.w3.org/1999/xlink">
    <!-- Generator: Sketch 59.1 (86144) - https://sketch.com -->
    <title>Group</title>
    <desc>Created with Sketch.</desc>
    <g id="design-final-copy" stroke="none" stroke-width="1" fill="none" fill-rule="evenodd">
        <g id="connect-to-ledger-step-1" transform="translate(-1303.000000, -185.000000)" fill="#000000" fill-rule="nonzero">
            <g id="ledger" transform="translate(1303.000000, 185.000000)">
                <g id="Group" transform="translate(0.000000, -0.000013)">
                    <path d="M13.9166667,-3.10862447e-14 L6.325,-3.10862447e-14 L6.325,10.2416798 L16.575,10.2416798 L16.575,2.65001312 C16.575,1.9457432 16.2946642,1.27043936 15.795889,0.773227708 C15.2971138,0.276016061 14.6209331,-0.00220156384 13.9166667,-3.10862447e-14 Z" id="Shape"></path>
                    <path d="M3.95833333,1.31214718e-05 L2.65,1.31214718e-05 C1.18644541,1.31214718e-05 -1.5187851e-13,1.18645853 -1.5187851e-13,2.65001312 L-1.5187851e-13,3.95834645 L3.95833333,3.95834645 L3.95833333,1.31214718e-05 Z" id="Path"></path>
                    <polygon id="Rectangle-path" points="-1.5187851e-13 6.32501312 3.95833333 6.32501312 3.95833333 10.2833465 -1.5187851e-13 10.2833465"></polygon>
                    <path d="M12.65,16.5750131 L13.9583333,16.5750131 C14.6626033,16.5750131 15.3379071,16.2946773 15.8351187,15.7959021 C16.3323304,15.2971269 16.610548,14.6209462 16.6083465,13.9166798 L16.6083465,12.6500131 L12.65,12.6500131 L12.65,16.5750131 Z" id="Path"></path>
                    <polygon id="Path" points="6.325 12.6500131 10.2833333 12.6500131 10.2833333 16.6083465 6.325 16.6083465"></polygon>
                    <path d="M-1.5187851e-13,12.6500131 L-1.5187851e-13,13.9583465 C-1.5187851e-13,15.421901 1.18644541,16.6083465 2.65,16.6083465 L3.95833333,16.6083465 L3.95833333,12.6500131 L-1.5187851e-13,12.6500131 Z" id="Path"></path>
                </g>
            </g>
        </g>
    </g>
</svg>