<svg style="" width="80.000000" height="60.000000" version="1.1" xmlns="http://www.w3.org/2000/svg">
<path d="M24.776786 46.741071 L28.258929 40.446429 C25.669630 38.571419 23.645841 36.205371 22.187500 33.348214 C20.729159 30.491057 20.000000 27.470254 20.000000 24.285714 C20.000000 20.684506 20.907729 17.336325 22.723214 14.241071 C15.907704 17.723232 10.238118 22.976155 5.714286 30.000000 C10.684549 37.678610 17.038652 43.258911 24.776786 46.741071 Z M41.517857 14.375000 C41.934526 13.958331 42.142857 13.452384 42.142857 12.857143 C42.142857 12.261902 41.934526 11.755954 41.517857 11.339286 C41.101188 10.922617 40.595241 10.714286 40.000000 10.714286 C36.279743 10.714286 33.087811 12.046118 30.424107 14.709821 C27.760403 17.373525 26.428571 20.565458 26.428571 24.285714 C26.428571 24.880955 26.636903 25.386903 27.053571 25.803571 C27.470240 26.220240 27.976187 26.428571 28.571429 26.428571 C29.166670 26.428571 29.672617 26.220240 30.089286 25.803571 C30.505954 25.386903 30.714286 24.880955 30.714286 24.285714 C30.714286 21.726178 31.622015 19.538700 33.437500 17.723214 C35.252985 15.907729 37.440463 15.000000 40.000000 15.000000 C40.595241 15.000000 41.101188 14.791669 41.517857 14.375000 Z M58.348214 4.330357 C58.348214 4.538692 58.333333 4.672619 58.303571 4.732143 C55.178556 10.327409 50.491103 18.749944 44.241071 30.000000 C37.991040 41.250056 33.288706 49.687472 30.133929 55.312500 L27.946429 59.285714 C27.648808 59.761907 27.232146 60.000000 26.696429 60.000000 C26.339284 60.000000 24.345256 58.958344 20.714286 56.875000 C20.238093 56.577379 20.000000 56.160717 20.000000 55.625000 C20.000000 55.267855 20.654755 53.973225 21.964286 51.741071 C17.708312 49.806538 13.787220 47.232159 10.200893 44.017857 C6.614565 40.803555 3.511918 37.157758 0.892857 33.080357 C0.297616 32.157733 0.000000 31.130958 0.000000 30.000000 C0.000000 28.869042 0.297616 27.842267 0.892857 26.919643 C5.446451 19.925560 11.101157 14.404782 17.857143 10.357143 C24.613129 6.309504 31.994008 4.285714 40.000000 4.285714 C42.648823 4.285714 45.327367 4.538688 48.035714 5.044643 L50.446429 0.714286 C50.744049 0.238093 51.160712 -0.000000 51.696429 -0.000000 C51.845239 -0.000000 52.113093 0.089285 52.500000 0.267857 C52.886907 0.446429 53.348212 0.677082 53.883929 0.959821 C54.419646 1.242561 54.910712 1.517856 55.357143 1.785714 C55.803574 2.053573 56.272319 2.328868 56.763393 2.611607 C57.254467 2.894347 57.544642 3.065476 57.633929 3.125000 C58.110121 3.422621 58.348214 3.824402 58.348214 4.330357 Z M60.000000 24.285714 C60.000000 28.422640 58.824417 32.194923 56.473214 35.602679 C54.122012 39.010434 51.011924 41.458326 47.142857 42.946429 L59.642857 20.535714 C59.880954 21.875007 60.000000 23.124994 60.000000 24.285714 Z M79.107143 26.919643 C79.702384 27.931553 80.000000 28.958328 80.000000 30.000000 C80.000000 31.041672 79.702384 32.068447 79.107143 33.080357 C77.946423 34.985129 76.324415 37.142845 74.241071 39.553571 C69.776763 44.672645 64.605684 48.645819 58.727679 51.473214 C52.849673 54.300609 46.607176 55.714286 40.000000 55.714286 L43.303571 49.821429 C49.613127 49.285712 55.453842 47.247042 60.825893 43.705357 C66.197944 40.163673 70.684506 35.595266 74.285714 30.000000 C70.863078 24.672592 66.666692 20.297636 61.696429 16.875000 L64.508929 11.875000 C67.336324 13.779771 70.052070 16.056534 72.656250 18.705357 C75.260430 21.354180 77.410706 24.092248 79.107143 26.919643 Z M80.000000 55.714286" style="fill:black"/>
</svg>