<svg style="" width="80.000000" height="51.428571" version="1.1" xmlns="http://www.w3.org/2000/svg">
<path d="M74.285714 25.714286 C69.761882 18.690441 64.092296 13.437517 57.276786 9.955357 C59.092271 13.050611 60.000000 16.398792 60.000000 20.000000 C60.000000 25.505980 58.043174 30.215754 54.129464 34.129464 C50.215754 38.043174 45.505980 40.000000 40.000000 40.000000 C34.494020 40.000000 29.784246 38.043174 25.870536 34.129464 C21.956826 30.215754 20.000000 25.505980 20.000000 20.000000 C20.000000 16.398792 20.907729 13.050611 22.723214 9.955357 C15.907704 13.437517 10.238118 18.690441 5.714286 25.714286 C9.672639 31.815507 14.635387 36.674089 20.602679 40.290179 C26.569970 43.906268 33.035679 45.714286 40.000000 45.714286 C46.964321 45.714286 53.430030 43.906268 59.397321 40.290179 C65.364613 36.674089 70.327361 31.815507 74.285714 25.714286 Z M41.517857 10.089286 C41.934526 9.672617 42.142857 9.166670 42.142857 8.571429 C42.142857 7.976188 41.934526 7.470240 41.517857 7.053571 C41.101188 6.636903 40.595241 6.428571 40.000000 6.428571 C36.279743 6.428571 33.087811 7.760403 30.424107 10.424107 C27.760403 13.087811 26.428571 16.279743 26.428571 20.000000 C26.428571 20.595241 26.636903 21.101188 27.053571 21.517857 C27.470240 21.934526 27.976187 22.142857 28.571429 22.142857 C29.166670 22.142857 29.672617 21.934526 30.089286 21.517857 C30.505954 21.101188 30.714286 20.595241 30.714286 20.000000 C30.714286 17.440463 31.622015 15.252985 33.437500 13.437500 C35.252985 11.622015 37.440463 10.714286 40.000000 10.714286 C40.595241 10.714286 41.101188 10.505954 41.517857 10.089286 Z M79.107143 22.633929 C79.702384 23.675600 80.000000 24.702376 80.000000 25.714286 C80.000000 26.726196 79.702384 27.752971 79.107143 28.794643 C74.940455 35.639915 69.337833 41.123491 62.299107 45.245536 C55.260381 49.367580 47.827420 51.428571 40.000000 51.428571 C32.172580 51.428571 24.739619 49.360140 17.700893 45.223214 C10.662167 41.086289 5.059545 35.610153 0.892857 28.794643 C0.297616 27.752971 0.000000 26.726196 0.000000 25.714286 C0.000000 24.702376 0.297616 23.675600 0.892857 22.633929 C5.059545 15.818418 10.662167 10.342283 17.700893 6.205357 C24.739619 2.068432 32.172580 -0.000000 40.000000 -0.000000 C47.827420 -0.000000 55.260381 2.068432 62.299107 6.205357 C69.337833 10.342283 74.940455 15.818418 79.107143 22.633929 Z M80.000000 51.428571" style="fill:black"/>
</svg>