<?xml version="1.0" encoding="UTF-8"?>
<svg width="24px" height="37px" viewBox="0 0 24 37" version="1.1" xmlns="http://www.w3.org/2000/svg" xmlns:xlink="http://www.w3.org/1999/xlink">
    <!-- Generator: Sketch 49.1 (51147) - http://www.bohemiancoding.com/sketch -->
    <title>Logotype</title>
    <desc>Created with Sketch.</desc>
    <defs></defs>
    <g id="Page-1" stroke="none" stroke-width="1" fill="none" fill-rule="evenodd">
        <path d="M34.6229127,11.7534878 L24.6538481,11.7534878 L24.6538481,30.9192274 L24.6290411,30.9192274 L12.3273518,36.6942149 L0.024806967,30.9192274 L-1.42108547e-14,30.9192274 L-1.42108547e-14,11.7534878 L3.60813058,11.7534878 L3.60813058,9.06279047 C3.60813058,4.4488161 7.52078806,0.694214876 12.3290626,0.694214876 C17.1347709,0.694214876 21.0474284,4.4488161 21.0474284,9.06279047 L21.0474284,11.7534878 Z M19.6924547,27.7318125 L19.6924547,16.2505874 L4.96139339,16.2505874 L4.96139339,27.7318125 L12.3273518,31.1813362 L19.6924547,27.7318125 Z M8.08108334,9.06279047 L8.08108334,11.7534878 L16.5744756,11.7534878 L16.5744756,9.06279047 C16.5744756,6.92724822 14.6686162,5.18959575 12.3290626,5.18959575 C9.98694274,5.18959575 8.08108334,6.92724822 8.08108334,9.06279047 Z" id="Logotype" fill="#000000" fill-rule="nonzero"></path>
    </g>
</svg>
